<?xml version="1.0" encoding="UTF-8"?>
<svg width="32px" height="32px" viewBox="0 0 32 32" version="1.1" xmlns="http://www.w3.org/2000/svg" xmlns:xlink="http://www.w3.org/1999/xlink">
    <title>Telegram</title>
    <g stroke="none" stroke-width="1" fill="none" fill-rule="evenodd">
        <circle fill="#2AABEE" cx="16" cy="16" r="16"></circle>
        <path d="M16.0003,6.66667 C10.8458,6.66667 6.66699,10.8455 6.66699,16 C6.66699,21.1545 10.8458,25.3333 16.0003,25.3333 C21.1548,25.3333 25.3337,21.1545 25.3337,16 C25.3337,10.8455 21.1548,6.66667 16.0003,6.66667 Z M20.5608,13.5533 C20.3837,15.14 19.5803,19.1733 19.1703,20.9333 C18.997,21.6867 18.6537,21.9533 18.327,21.98 C17.6137,22.04 17.067,21.4933 16.3803,21.0267 C15.307,20.2933 14.7003,19.8267 13.6603,19.1133 C12.4537,18.2867 13.247,17.8267 13.9337,17.1133 C14.1203,16.92 17.1537,14.2 17.2203,13.9667 C17.2289,13.9337 17.2367,13.8025 17.1618,13.7367 C17.0868,13.6708 16.9747,13.6917 16.8917,13.7083 C16.7743,13.7317 14.8317,15.0267 11.0637,17.5933 C10.497,17.9733 9.98033,18.16 9.51699,18.1467 C9.00699,18.1317 8.02699,17.8333 7.30699,17.58 C6.42033,17.2733 5.71366,17.1133 5.77166,16.62 C5.80166,16.3633 6.15366,16.1 6.82699,15.8333 C10.8537,14.0467 13.5337,12.88 14.867,12.3333 C18.6737,10.78 19.5003,10.4867 20.0503,10.4733 C20.1737,10.4733 20.4637,10.5 20.647,10.6467 C20.7937,10.7667 20.8337,10.93 20.8537,11.0467 C20.887,11.2133 20.9037,11.8467 20.8537,12.1867 C20.8137,12.84 20.6402,13.2578 20.5608,13.5533 Z" fill="#FFFFFF" fill-rule="nonzero"></path>
    </g>
</svg>
