<?xml version="1.0" encoding="UTF-8"?>
<svg width="80px" height="80px" viewBox="0 0 24 24" fill="none" xmlns="http://www.w3.org/2000/svg">
<path d="M19.0001 9.7999C18.9043 7.5234 17.7436 5.5383 16.0146 4.269C14.2536 2.9783 11.9738 2.5201 9.8366 3.0171C7.69943 3.5139 5.91318 4.9312 4.96645 6.995C4.01902 9.0603 4.00308 11.6055 4.93147 13.7461C5.83264 15.8257 7.68451 17.3405 9.98789 17.7189C10.5913 17.8267 11.2089 17.8784 11.8229 17.8687C12.3893 17.8598 12.6884 18.3246 12.4137 18.8434C12.2364 19.1704 11.9075 19.4004 11.5321 19.4379C10.7186 19.5144 9.89476 19.4739 9.0982 19.3174C6.21491 18.8483 3.87142 16.9738 2.76143 14.3893C1.64323 11.7835 1.68795 8.5722 2.87912 6.0061C4.04873 3.4933 6.27353 1.7444 8.91941 1.1659C11.5687 0.5863 14.4348 1.182 16.5875 2.7795C18.7753 4.4054 20.1643 7.0355 20.1932 9.8029C20.1948 9.948 20.1932 10.0931 20.188 10.2379C20.1737 10.6299 19.9333 10.9666 19.6077 11.1508C19.2543 11.3503 18.7999 11.381 18.4195 11.2264C18.0879 11.0923 17.8303 10.8233 17.7284 10.4765C17.6934 10.3582 17.7043 10.1885 17.7024 10.0443C17.7015 9.9629 17.7024 9.8815 17.7015 9.7999C17.7015 9.7999 18.2173 9.7999 19.0001 9.7999Z" fill="#149cb8"/>
<path d="M12.2447 9.3753C12.7562 9.3753 13.1719 9.791 13.1719 10.3024C13.1719 10.8139 12.7562 11.2296 12.2447 11.2296C11.7332 11.2296 11.3176 10.8139 11.3176 10.3024C11.3176 9.791 11.7332 9.3753 12.2447 9.3753Z" fill="#149cb8"/>
<path d="M17.3869 14.0841C16.8754 14.0841 16.4597 13.6684 16.4597 13.157C16.4597 12.6455 16.8754 12.2298 17.3869 12.2298C17.8984 12.2298 18.3141 12.6455 18.3141 13.157C18.3141 13.6684 17.8984 14.0841 17.3869 14.0841Z" fill="#149cb8"/>
<path d="M7.10254 14.0841C6.59109 14.0841 6.17542 13.6684 6.17542 13.157C6.17542 12.6455 6.59109 12.2298 7.10254 12.2298C7.61399 12.2298 8.02967 12.6455 8.02967 13.157C8.02967 13.6684 7.61399 14.0841 7.10254 14.0841Z" fill="#149cb8"/>
<path d="M18.6376 16.8627C19.1491 16.8627 19.5648 17.2784 19.5648 17.7899C19.5648 18.3014 19.1491 18.717 18.6376 18.717C18.1262 18.717 17.7105 18.3014 17.7105 17.7899C17.7105 17.2784 18.1262 16.8627 18.6376 16.8627Z" fill="#149cb8"/>
<path d="M5.85179 16.8627C6.36324 16.8627 6.77892 17.2784 6.77892 17.7899C6.77892 18.3014 6.36324 18.717 5.85179 18.717C5.34034 18.717 4.92467 18.3014 4.92467 17.7899C4.92467 17.2784 5.34034 16.8627 5.85179 16.8627Z" fill="#149cb8"/>
<path d="M14.9354 18.717C15.4468 18.717 15.8625 19.1327 15.8625 19.6442C15.8625 20.1556 15.4468 20.5713 14.9354 20.5713C14.4239 20.5713 14.0083 20.1556 14.0083 19.6442C14.0083 19.1327 14.4239 18.717 14.9354 18.717Z" fill="#149cb8"/>
<path d="M9.55432 18.717C10.0658 18.717 10.4815 19.1327 10.4815 19.6442C10.4815 20.1556 10.0658 20.5713 9.55432 20.5713C9.04287 20.5713 8.62719 20.1556 8.62719 19.6442C8.62719 19.1327 9.04287 18.717 9.55432 18.717Z" fill="#149cb8"/>
<path d="M12.2447 20.5712C12.7562 20.5712 13.1719 20.9869 13.1719 21.4984C13.1719 22.0098 12.7562 22.4255 12.2447 22.4255C11.7332 22.4255 11.3176 22.0098 11.3176 21.4984C11.3176 20.9869 11.7332 20.5712 12.2447 20.5712Z" fill="#149cb8"/>
</svg>
