<?xml version="1.0" encoding="UTF-8"?>
<svg width="40px" height="40px" viewBox="0 0 24 24" fill="none" xmlns="http://www.w3.org/2000/svg">
<path d="M3 5.5C3 14.0604 9.93959 21 18.5 21C18.8862 21 19.2691 20.9859 19.6483 20.9581C20.0359 20.9296 20.3999 20.7347 20.6219 20.4281L22.5135 17.9606C22.7583 17.6336 22.756 17.1945 22.5079 16.8698L19.6826 13.1039C19.4165 12.7537 18.9367 12.6434 18.5476 12.8407L15.9308 14.0222C14.9496 14.4839 13.7874 14.0509 13.3458 13.0529L11.546 8.60272C11.1044 7.60476 11.5678 6.45291 12.5766 6.03953L15.1934 4.85807C15.5825 4.66072 15.7371 4.19168 15.561 3.79559L13.7445 0.367508C13.5556 -0.0518429 13.1231 -0.115561 12.8476 0.229156L10.9561 2.69671C10.734 3.00332 10.6323 3.39548 10.7107 3.77237C10.7885 4.14742 10.8278 4.52758 10.8278 4.90919C10.8278 13.4696 3.88817 20.4092 3 21V5.5Z" fill="#149cb8"/>
</svg>
