<?xml version="1.0" encoding="UTF-8"?>
<svg width="80px" height="80px" viewBox="0 0 24 24" fill="none" xmlns="http://www.w3.org/2000/svg">
<path d="M9.97218 5.50391C9.97218 5.77877 9.84775 6.04249 9.62585 6.20066C9.40396 6.35882 9.11951 6.39507 8.86465 6.29907L3.60485 4.17C3.22545 4.0182 3.00048 3.64208 3.00048 3.23094C3.00048 2.81979 3.22545 2.44368 3.60485 2.29187L8.86465 0.1628C9.11951 0.0668 9.40396 0.10305 9.62585 0.26122C9.84775 0.41938 9.97218 0.6831 9.97218 0.95797V5.50391Z" fill="#149cb8"/>
<path d="M14.1914 23.5029C14.1914 23.2281 14.3159 22.9644 14.5378 22.8062C14.7596 22.648 15.0441 22.6118 15.299 22.7078L20.5588 24.8369C20.9382 24.9887 21.1631 25.3648 21.1631 25.7759C21.1631 26.1871 20.9382 26.5632 20.5588 26.715L15.299 28.844C15.0441 28.94 14.7596 28.9038 14.5378 28.7456C14.3159 28.5874 14.1914 28.3237 14.1914 28.0488V23.5029Z" fill="#149cb8" fill-opacity="0.5"/>
<path d="M19.1509 9.80499C21.0095 9.80499 22.5131 8.30142 22.5131 6.44285C22.5131 4.58428 21.0095 3.08072 19.1509 3.08072C17.2924 3.08072 15.7888 4.58428 15.7888 6.44285C15.7888 8.30142 17.2924 9.80499 19.1509 9.80499Z" fill="#149cb8"/>
<path d="M4.31543 20.9193C6.17399 20.9193 7.67756 19.4157 7.67756 17.5571C7.67756 15.6986 6.17399 14.195 4.31543 14.195C2.45687 14.195 0.953301 15.6986 0.953301 17.5571C0.953301 19.4157 2.45687 20.9193 4.31543 20.9193Z" fill="#149cb8"/>
<path d="M12.2832 14.7134C14.1418 14.7134 15.6454 13.2098 15.6454 11.3512C15.6454 9.49266 14.1418 7.9891 12.2832 7.9891C10.4247 7.9891 8.92112 9.49266 8.92112 11.3512C8.92112 13.2098 10.4247 14.7134 12.2832 14.7134Z" fill="#149cb8"/>
<path d="M9.58398 19.2437C9.8983 19.2437 10.1932 19.0836 10.3413 18.8156L12.8255 14.3456C13.0269 13.9859 12.9332 13.5382 12.5999 13.2904C12.2667 13.0427 11.8077 13.0786 11.5222 13.3789L7.24615 17.8489C6.95543 18.1513 6.94463 18.6127 7.22157 18.9285C7.49852 19.2444 7.95755 19.3022 8.30155 19.067L8.72151 18.7892L8.94865 19.0367C9.09855 19.1707 9.2966 19.2437 9.58398 19.2437Z" fill="#149cb8"/>
<path d="M13.6113 6.34851C13.9257 6.34851 14.2205 6.18848 14.3686 5.92044L16.8528 1.45041C17.0543 1.09075 16.9606 0.643021 16.6273 0.395241C16.2941 0.147461 15.8351 0.183366 15.5496 0.483662L11.2736 4.95369C10.9829 5.25612 10.9721 5.7175 11.249 6.03331C11.526 6.3491 11.985 6.40698 12.3289 6.17169L12.749 5.89384L12.976 6.14136C13.1259 6.27546 13.3361 6.34851 13.6113 6.34851Z" fill="#149cb8"/>
<path d="M18.7598 12.2952C18.4454 12.2952 18.1506 12.4552 18.0025 12.7233L15.5183 17.1933C15.3168 17.553 15.4106 18.0007 15.7438 18.2485C16.077 18.4963 16.536 18.4604 16.8215 18.1601L21.0976 13.6901C21.3883 13.3876 21.3991 12.9263 21.1221 12.6105C20.8452 12.2947 20.3861 12.2368 20.0422 12.472L19.6221 12.7499L19.3951 12.5024C19.2452 12.3683 19.035 12.2952 18.7598 12.2952Z" fill="#149cb8"/>
</svg>
