<?xml version="1.0" encoding="UTF-8"?>
<svg width="32px" height="32px" viewBox="0 0 32 32" version="1.1" xmlns="http://www.w3.org/2000/svg" xmlns:xlink="http://www.w3.org/1999/xlink">
    <title>Viber</title>
    <g stroke="none" stroke-width="1" fill="none" fill-rule="evenodd">
        <circle fill="#7D3DAF" cx="16" cy="16" r="16"></circle>
        <path d="M20.8977,17.8809 L20.8977,20.6176 C20.8978,20.7733 20.8552,20.9261 20.774,21.0598 C20.6927,21.1935 20.5756,21.3029 20.4351,21.3755 C20.2947,21.448 20.1362,21.481 19.9799,21.4707 C19.8237,21.4603 19.673,21.4071 19.5458,21.3169 C18.3239,20.4633 17.1978,19.4824 16.1891,18.3929 C15.1389,17.3372 14.199,16.1763 13.3859,14.9292 C12.7027,13.9195 12.0886,12.853 11.5479,11.7374 C11.4677,11.5927 11.4316,11.4291 11.4443,11.2659 C11.457,11.1028 11.5178,10.9475 11.6197,10.8189 C11.7217,10.6903 11.8603,10.5944 12.018,10.5436 C12.1758,10.4929 12.3457,10.4896 12.5054,10.5341 L15.3611,11.4147 C15.5211,11.4613 15.6636,11.5563 15.7697,11.687 C15.8759,11.8177 15.9408,11.9778 15.9556,12.1463 C16.0229,12.8349 16.179,13.511 16.4194,14.156 C16.473,14.3069 16.4779,14.4709 16.4335,14.6248 C16.3891,14.7787 16.2973,14.9151 16.1708,15.0165 L15.201,15.9046 C16.018,17.5268 17.2486,18.9125 18.7712,19.9369 L19.735,19.0549 C19.8414,18.9544 19.9738,18.8897 20.1144,18.8684 C20.255,18.8471 20.3979,18.8702 20.5243,18.9349 C21.1359,19.2475 21.7929,19.4649 22.4685,19.5794 C22.6204,19.6037 22.7606,19.6742 22.8706,19.7814 C22.9807,19.8886 23.0554,20.0275 23.083,20.1783 L23.4695,22.9953 C23.5008,23.1629 23.4823,23.3363 23.4162,23.4934 C23.3501,23.6504 23.2395,23.7842 23.0971,23.8785 C22.9546,23.9727 22.7865,24.0231 22.616,24.0232 C22.4455,24.0233 22.2774,23.9731 22.1348,23.8789 C20.9117,23.0954 19.8442,22.0768 19.0016,20.8842 C18.6398,20.3839 18.3068,19.8593 18.0044,19.3128 C17.9211,19.163 17.9043,18.9871 17.9578,18.8256 C18.0112,18.6641 18.1304,18.5301 18.2883,18.4525 C18.3651,18.4143 18.4498,18.3952 18.5355,18.3969 L20.8977,17.8809 Z M17.2686,8.00026 C17.7941,7.99824 18.3188,8.05089 18.8344,8.15734 C20.7204,8.574 22.3683,9.70434 23.4167,11.3082 C23.97,12.185 24.3007,13.1865 24.3828,14.2223 C24.395,14.4133 24.3311,14.6001 24.206,14.7442 C24.0809,14.8882 23.9043,14.9784 23.7132,14.9947 C23.5222,15.0111 23.3329,14.9524 23.1848,14.8315 C23.0367,14.7105 22.9414,14.5366 22.9197,14.3462 C22.8544,13.5232 22.5926,12.7289 22.1569,12.0317 C21.3353,10.7777 20.0518,9.90687 18.5948,9.62028 C18.1935,9.5431 17.7861,9.50514 17.378,9.50718 C17.1862,9.50695 17.0012,9.43718 16.8585,9.31159 C16.7159,9.186 16.6264,9.01231 16.6059,8.8218 C16.5855,8.63128 16.6355,8.44007 16.7456,8.285 C16.8557,8.12993 17.0175,8.02211 17.2008,7.9837 C17.223,7.98076 17.2458,7.97903 17.2686,7.98026 L17.2686,8.00026 Z M16.3813,11.4147 C16.1968,11.4165 16.0182,11.3488 15.8817,11.2252 C15.7453,11.1015 15.6612,10.9308 15.645,10.7471 C15.6288,10.5634 15.6817,10.3795 15.7931,10.2336 C15.9045,10.0877 16.0661,9.99103 16.2451,9.96359 C16.4241,9.93614 16.6078,9.98029 16.7584,10.0882 C16.9089,10.1961 17.0134,10.3591 17.0478,10.5444 C17.0821,10.7297 17.0438,10.921 16.9402,11.0769 C16.8365,11.2328 16.6755,11.3407 16.4935,11.3789 C16.4561,11.3824 16.419,11.3842 16.3813,11.3847 L16.3813,11.4147 Z M17.5018,12.734 C18.2071,12.8732 18.8517,13.2392 19.3333,13.7772 C19.8148,14.3152 20.1073,15.0008 20.1645,15.7214 C20.1772,15.9127 20.1137,16.1001 19.9886,16.2448 C19.8634,16.3894 19.6866,16.4801 19.4953,16.4968 C19.3041,16.5135 19.1145,16.455 18.9661,16.334 C18.8178,16.213 18.7222,16.0389 18.7006,15.8482 C18.6628,15.3678 18.4641,14.9151 18.1373,14.5679 C17.8105,14.2208 17.3763,13.997 16.904,13.9327 C16.7232,13.9121 16.5557,13.8263 16.4365,13.6926 C16.3173,13.5589 16.2554,13.387 16.2629,13.2124 C16.2705,13.0378 16.347,12.8721 16.4774,12.7496 C16.6078,12.6271 16.7813,12.5563 16.9617,12.5514 C17.1408,12.5466 17.3208,12.575 17.4918,12.6358 L17.5018,12.734 Z M18.4656,14.5542 C18.6554,14.6058 18.819,14.7292 18.9246,14.9 C19.0302,15.0708 19.0698,15.2764 19.0345,15.4751 C18.9992,15.6738 18.8916,15.8526 18.7327,15.9782 C18.5739,16.1038 18.3748,16.1677 18.1725,16.1579 C17.9855,16.1631 17.8008,16.1048 17.6487,15.9919 C17.4965,15.8789 17.386,15.7175 17.3359,15.5349 C17.2859,15.3523 17.2992,15.1587 17.3736,14.9849 C17.448,14.8111 17.5795,14.6672 17.7474,14.5762 C17.9152,14.4853 18.1088,14.452 18.2973,14.4821 L18.4656,14.5542 Z" fill="#FFFFFF" fill-rule="nonzero"></path>
    </g>
</svg>
