<?xml version="1.0" encoding="UTF-8"?>
<svg width="40px" height="40px" viewBox="0 0 24 24" fill="none" xmlns="http://www.w3.org/2000/svg">
<path fill-rule="evenodd" clip-rule="evenodd" d="M12 2C7.58172 2 4 5.58172 4 10C4 11.8638 4.58248 13.5712 5.58103 14.9445L5.5872 14.9529L11.5872 22.9529C11.8173 23.2547 12.1827 23.2547 12.4128 22.9529L18.4128 14.9529L18.419 14.9445C19.4175 13.5712 20 11.8638 20 10C20 5.58172 16.4183 2 12 2ZM12 13C13.6569 13 15 11.6569 15 10C15 8.34315 13.6569 7 12 7C10.3431 7 9 8.34315 9 10C9 11.6569 10.3431 13 12 13Z" fill="#149cb8"/>
</svg>
