<?xml version="1.0" encoding="UTF-8"?>
<svg width="80px" height="80px" viewBox="0 0 24 24" fill="none" xmlns="http://www.w3.org/2000/svg">
<path d="M19.5 12C19.5 11.7239 19.2761 11.5 19 11.5H17.5V10C17.5 9.72386 17.2761 9.5 17 9.5H13.5V8C13.5 7.72386 13.2761 7.5 13 7.5H5C4.72386 7.5 4.5 7.72386 4.5 8V15C4.5 15.2761 4.72386 15.5 5 15.5H6.1315C6.20206 16.3955 6.97863 17.0772 7.9167 17.0772C8.85477 17.0772 9.63134 16.3955 9.7019 15.5H14.2981C14.3687 16.3955 15.1452 17.0772 16.0833 17.0772C17.0214 17.0772 17.7979 16.3955 17.8685 15.5H19C19.2761 15.5 19.5 15.2761 19.5 15V12ZM16.1667 16.0772C15.8056 16.0772 15.5128 15.7843 15.5128 15.4232C15.5128 15.0622 15.8056 14.7693 16.1667 14.7693C16.5277 14.7693 16.8206 15.0622 16.8206 15.4232C16.8206 15.7843 16.5277 16.0772 16.1667 16.0772ZM13 13.5H5.5V8.5H13V13.5ZM14 13.5V10.5H16.5V13.5H14ZM7.9167 16.0772C7.55563 16.0772 7.26278 15.7843 7.26278 15.4232C7.26278 15.0622 7.55563 14.7693 7.9167 14.7693C8.27777 14.7693 8.57062 15.0622 8.57062 15.4232C8.57062 15.7843 8.27777 16.0772 7.9167 16.0772ZM18.5 14.5H17.8685C17.7979 13.6045 17.0214 12.9228 16.0833 12.9228C15.1452 12.9228 14.3687 13.6045 14.2981 14.5H9.7019C9.63134 13.6045 8.85476 12.9228 7.9167 12.9228C6.97863 12.9228 6.20206 13.6045 6.1315 14.5H5.5V14H18.5V14.5Z" fill="#149cb8"/>
</svg>
