<?xml version="1.0" encoding="UTF-8"?>
<svg width="120" height="40" viewBox="0 0 120 40" fill="none" xmlns="http://www.w3.org/2000/svg">
  <rect width="120" height="40" fill="#FFFFFF" />
  <path d="M20.6641 30H15.4531V10H22.2656C27.5312 10 30.1641 12.1484 30.1641 16.4453C30.1641 19.0547 28.8672 20.8281 26.2734 21.7656L30.5469 30H24.4375L21.1094 22.7578H20.6641V30ZM20.6641 18.9375H21.9766C23.9219 18.9375 24.8984 18.2734 24.8984 16.9453C24.8984 15.6641 23.9219 15.0234 21.9766 15.0234H20.6641V18.9375ZM41.8281 30H32.0312V10H41.8281V14.0234H37.2422V17.3594H41.2031V21.3828H37.2422V25.9766H41.8281V30ZM54.1094 30H43.6875V10H48.8984V25.9766H54.1094V30ZM66.3984 30H55.9766V10H61.1875V25.9766H66.3984V30ZM77.5859 30.3594C71.2422 30.3594 68.0703 26.9062 68.0703 20C68.0703 13.0938 71.2422 9.64062 77.5859 9.64062C83.9297 9.64062 87.1016 13.0938 87.1016 20C87.1016 26.9062 83.9297 30.3594 77.5859 30.3594ZM77.5859 25.4688C80.4141 25.4688 81.8281 23.6406 81.8281 20C81.8281 16.3594 80.4141 14.5312 77.5859 14.5312C74.7578 14.5312 73.3438 16.3594 73.3438 20C73.3438 23.6406 74.7578 25.4688 77.5859 25.4688Z" fill="#149cb8" />
</svg>
