<?xml version="1.0" encoding="UTF-8"?>
<svg width="120" height="40" viewBox="0 0 120 40" fill="none" xmlns="http://www.w3.org/2000/svg">
  <rect width="120" height="40" fill="#FFFFFF" />
  <path d="M18.8594 30.3594C15.0938 30.3594 12.625 29.3906 11.4531 27.4531C10.8906 26.4219 10.6094 25.0781 10.6094 23.4219V22.8828H15.7344V23.8203C15.7344 25.5703 16.7969 26.4453 18.9219 26.4453C20.9297 26.4453 21.9336 25.6641 21.9336 24.1016C21.9336 22.8516 21.3359 22.0234 20.1406 21.6172L16.6797 20.5625C12.6016 19.25 10.5625 17.1562 10.5625 14.2812C10.5625 10.6094 13.2344 8.77344 18.5781 8.77344C22.3594 8.77344 24.7812 9.74219 25.8438 11.6797C26.3594 12.6641 26.6172 13.9062 26.6172 15.4062V15.8984H21.5156V15.1797C21.5156 13.6016 20.6016 12.8125 18.7734 12.8125C16.8281 12.8125 15.8555 13.5078 15.8555 14.8984C15.8555 16.0312 16.4531 16.7891 17.6484 17.1953L21.0391 18.25C25.1953 19.5781 27.2734 21.6719 27.2734 24.5312C27.2734 28.4141 24.4688 30.3594 18.8594 30.3594ZM37.25 30H31.0781L28.2344 10H33.4453L35.1484 23.1719L36.8125 10H43.0312L44.6484 23.0625L46.3828 10H51.5938L48.75 30H42.5781L40.9141 17.9219L39.2266 30H37.25ZM62.8203 30H57.6094V14.0234H53.1875V10H67.2422V14.0234H62.8203V30ZM78.25 30H73.0391V10H78.25V18.0469H81.7266C86.6797 18.0469 89.625 20.5625 89.625 25.0234C89.625 28.3047 87.6328 30 83.6484 30H78.25ZM78.25 21.9531V26.0938H81.1875C82.9062 26.0938 83.7656 25.7188 83.7656 25.0234C83.7656 22.6641 82.9062 21.9531 81.1875 21.9531H78.25ZM101.672 30H91.25V10H101.211V14.0234H96.4609V17.5H99.9766V21.5234H96.4609V25.9766H101.672V30Z" fill="#149cb8" />
</svg>
