<?xml version="1.0" encoding="UTF-8"?>
<svg width="120" height="40" viewBox="0 0 120 40" fill="none" xmlns="http://www.w3.org/2000/svg">
  <rect width="120" height="40" fill="#FFFFFF" />
  <path d="M38.3984 30H33.1875V10H39.9531C45.2188 10 47.8516 12.1484 47.8516 16.4453C47.8516 19.0547 46.5547 20.8281 43.9609 21.7656L48.2344 30H42.125L38.7969 22.7578H38.3984V30ZM38.3984 18.9375H39.7109C41.6562 18.9375 42.6328 18.2734 42.6328 16.9453C42.6328 15.6641 41.6562 15.0234 39.7109 15.0234H38.3984V18.9375ZM58.3594 30H53.1484V10H58.3594V30ZM69.6562 30H64.4453V10H69.6562V18.5938C69.6562 21.4062 70.6484 22.8125 72.6328 22.8125C74.6172 22.8125 75.6094 21.4062 75.6094 18.5938V10H80.8203V18.5938C80.8203 25.1042 78.0859 30 72.6172 30C69.9766 30 69.6562 30 69.6562 30ZM92.8906 30H87.6797V10H92.8906V30ZM103.719 10C108.984 10 111.617 12.1484 111.617 16.4453C111.617 20.7422 108.984 22.8906 103.719 22.8906H102.43V30H97.2188V10H103.719ZM102.43 18.9375H103.484C105.43 18.9375 106.383 18.2734 106.383 16.9453C106.383 15.6641 105.43 15.0234 103.484 15.0234H102.43V18.9375Z" fill="#149cb8" />
</svg>
