<?xml version="1.0" encoding="UTF-8"?>
<svg width="120" height="40" viewBox="0 0 120 40" fill="none" xmlns="http://www.w3.org/2000/svg">
  <rect width="120" height="40" fill="#FFFFFF" />
  <path d="M18.0234 30.3594C12.5547 30.3594 9.82031 26.8359 9.82031 19.7891C9.82031 12.7422 12.5547 9.21875 18.0234 9.21875C23.4922 9.21875 26.2266 12.7422 26.2266 19.7891C26.2266 26.8359 23.4922 30.3594 18.0234 30.3594ZM18.0234 26.0938C20.5078 26.0938 21.75 23.9922 21.75 19.7891C21.75 15.5859 20.5078 13.4844 18.0234 13.4844C15.5391 13.4844 14.2969 15.5859 14.2969 19.7891C14.2969 23.9922 15.5391 26.0938 18.0234 26.0938ZM39.1016 30H33.8906V10H43.6875V14.0234H39.1016V17.3594H43.0625V21.3828H39.1016V30ZM54.2969 30H49.0859V10H54.2969V17.5469H59.2422V10H64.4531V30H59.2422V21.5703H54.2969V30ZM76.5625 30H66.1406V10H76.1016V14.0234H71.3516V17.5H74.8672V21.5234H71.3516V25.9766H76.5625V30ZM88.1094 30H82.8984V14.0234H78.4766V10H92.5312V14.0234H88.1094V30ZM103.219 30H97.4219V14.0234H94.2578V10H106.383V14.0234H103.219V30ZM116.211 30H104.062V10H116.211V14.0234H109.273V17.3594H115.711V21.3828H109.273V25.9766H116.211V30Z" fill="#149cb8" />
</svg>
