<?xml version="1.0" encoding="UTF-8"?>
<svg width="120" height="40" viewBox="0 0 120 40" fill="none" xmlns="http://www.w3.org/2000/svg">
  <rect width="120" height="40" fill="#FFFFFF" />
  <path d="M20.1172 30H14.9062V10H20.1172V30ZM31.9844 30H26.7734V10H31.9844V18.0469H35.4609C40.4141 18.0469 43.3594 20.5625 43.3594 25.0234C43.3594 28.3047 41.3672 30 37.3828 30H31.9844ZM31.9844 21.9531V26.0938H34.9219C36.6406 26.0938 37.5 25.7188 37.5 25.0234C37.5 22.6641 36.6406 21.9531 34.9219 21.9531H31.9844ZM55.7266 30H45.3047V10H55.2656V14.0234H50.5156V17.5H54.0312V21.5234H50.5156V25.9766H55.7266V30ZM67.3047 30L66.3438 26.5625H61.6406L60.6328 30H55.0781L61.2109 10H66.8047L72.9375 30H67.3047ZM62.5547 22.7031H65.4062L64 17.0547L62.5547 22.7031ZM79.6484 19.8125L84.3047 10H90.0156L83.4375 23.4375V30H75.8594V23.4375L69.2812 10H74.9922L79.6484 19.8125Z" fill="#149cb8" />
</svg>
